<svg width="24" height="24" viewBox="0 0 24 24" fill="none" xmlns="http://www.w3.org/2000/svg">
<g clip-path="url(#clip0_3_287)">
<path d="M7.53335 10.4667C7.41164 10.3425 7.34386 10.1753 7.34473 10.0014C7.34561 9.82751 7.41508 9.66099 7.53804 9.53804C7.66099 9.41508 7.82751 9.34561 8.00139 9.34473C8.17528 9.34386 8.34249 9.41164 8.46668 9.53335L12 13.0533L15.5333 9.53335C15.6575 9.41164 15.8247 9.34386 15.9986 9.34473C16.1725 9.34561 16.339 9.41508 16.462 9.53804C16.5849 9.66099 16.6544 9.82751 16.6553 10.0014C16.6562 10.1753 16.5884 10.3425 16.4667 10.4667L12.4667 14.4667C12.4058 14.5288 12.3332 14.5781 12.2531 14.6118C12.173 14.6454 12.0869 14.6628 12 14.6628C11.9131 14.6628 11.827 14.6454 11.7469 14.6118C11.6668 14.5781 11.5942 14.5288 11.5333 14.4667L7.53335 10.4667Z" fill="black"/>
<path d="M0.0839844 20.5827V3.41735C0.0839844 2.53329 0.435174 1.68545 1.0603 1.06033C1.68542 0.435204 2.53326 0.0840149 3.41732 0.0840149H20.5827C21.4667 0.0840149 22.3146 0.435204 22.9397 1.06033C23.5648 1.68545 23.916 2.53329 23.916 3.41735V20.5827C23.916 21.4667 23.5648 22.3146 22.9397 22.9397C22.3146 23.5648 21.4667 23.916 20.5827 23.916H3.41732C2.53326 23.916 1.68542 23.5648 1.0603 22.9397C0.435174 22.3146 0.0839844 21.4667 0.0839844 20.5827ZM22.5827 3.41735C22.5827 2.88692 22.3719 2.37821 21.9969 2.00313C21.6218 1.62806 21.1131 1.41735 20.5827 1.41735H3.41732C2.88689 1.41735 2.37818 1.62806 2.0031 2.00313C1.62803 2.37821 1.41732 2.88692 1.41732 3.41735V20.5827C1.41732 21.1131 1.62803 21.6218 2.0031 21.9969C2.37818 22.372 2.88689 22.5827 3.41732 22.5827H20.5827C21.1131 22.5827 21.6218 22.372 21.9969 21.9969C22.3719 21.6218 22.5827 21.1131 22.5827 20.5827V3.41735Z" fill="black"/>
</g>
<defs>
<clipPath id="clip0_3_287">
<rect width="24" height="24" fill="white"/>
</clipPath>
</defs>
</svg>
