<svg width="24" height="24" viewBox="0 0 24 24" fill="none" xmlns="http://www.w3.org/2000/svg">
<g clip-path="url(#clip0_3_298)">
<path d="M16.4667 13.5333C16.5884 13.6575 16.6562 13.8247 16.6553 13.9986C16.6544 14.1725 16.5849 14.339 16.462 14.462C16.339 14.5849 16.1725 14.6544 15.9986 14.6553C15.8247 14.6562 15.6575 14.5884 15.5333 14.4667L12 10.9467L8.46668 14.4667C8.34249 14.5884 8.17528 14.6562 8.00139 14.6553C7.82751 14.6544 7.66099 14.5849 7.53804 14.462C7.41508 14.339 7.34561 14.1725 7.34473 13.9986C7.34386 13.8247 7.41164 13.6575 7.53335 13.5333L11.5333 9.53334C11.5942 9.47126 11.6668 9.42194 11.7469 9.38826C11.827 9.35459 11.9131 9.33725 12 9.33725C12.0869 9.33725 12.173 9.35459 12.2531 9.38826C12.3332 9.42194 12.4058 9.47126 12.4667 9.53334L16.4667 13.5333Z" fill="black"/>
<path d="M23.916 3.41735V20.5827C23.916 21.4667 23.5648 22.3146 22.9397 22.9397C22.3146 23.5648 21.4667 23.916 20.5827 23.916H3.41732C2.53326 23.916 1.68542 23.5648 1.0603 22.9397C0.435174 22.3146 0.0839844 21.4667 0.0839844 20.5827V3.41735C0.0839844 2.53329 0.435174 1.68545 1.0603 1.06033C1.68542 0.435204 2.53326 0.0840149 3.41732 0.0840149H20.5827C21.4667 0.0840149 22.3146 0.435204 22.9397 1.06033C23.5648 1.68545 23.916 2.53329 23.916 3.41735ZM1.41732 20.5827C1.41732 21.1131 1.62803 21.6218 2.0031 21.9969C2.37818 22.372 2.88689 22.5827 3.41732 22.5827H20.5827C21.1131 22.5827 21.6218 22.372 21.9969 21.9969C22.3719 21.6218 22.5827 21.1131 22.5827 20.5827V3.41735C22.5827 2.88692 22.3719 2.37821 21.9969 2.00313C21.6218 1.62806 21.1131 1.41735 20.5827 1.41735H3.41732C2.88689 1.41735 2.37818 1.62806 2.0031 2.00313C1.62803 2.37821 1.41732 2.88692 1.41732 3.41735V20.5827Z" fill="black"/>
</g>
<defs>
<clipPath id="clip0_3_298">
<rect width="24" height="24" fill="white"/>
</clipPath>
</defs>
</svg>
